<svg width="24" height="24" viewBox="0 0 24 24" fill="none" xmlns="http://www.w3.org/2000/svg">
<path d="M23.5 12C23.5 18.3513 18.3513 23.5 12 23.5C5.64873 23.5 0.5 18.3513 0.5 12C0.5 5.64872 5.64873 0.5 12 0.5C18.3513 0.5 23.5 5.64872 23.5 12Z" stroke="white"/>
<line y1="11.4216" x2="23.5294" y2="11.4216" stroke="white"/>
<line x1="11.951" y1="0.627457" x2="11.951" y2="24" stroke="white"/>
<path d="M3.29411 4.54901C3.29411 4.54901 7.11726 6.74509 11.8093 6.74509C16.5013 6.74509 21.0196 4.54901 21.0196 4.54901M11.8093 6.74509C16.5013 6.74509 21.0196 4.54901 21.0196 4.54901" stroke="white"/>
<path d="M2.66666 18.9804C2.66666 18.9804 4.86274 16.4706 11.6078 16.4706C18.3529 16.4706 21.4902 18.9804 21.4902 18.9804" stroke="white"/>
<path d="M6.43136 1.88235C6.43136 1.88235 2.82791 6.83045 2.67123 11.0288C2.51456 15.2272 6.43136 22.2745 6.43136 22.2745" stroke="white"/>
<path d="M9.72548 0.627457C9.72548 0.627457 6.7226 6.18455 6.59204 10.8997C6.46148 15.6148 9.72548 23.5294 9.72548 23.5294" stroke="white"/>
<path d="M14.2745 0.627457C14.2745 0.627457 17.5777 6.18455 17.7213 10.8997C17.8649 15.6148 14.2745 23.5294 14.2745 23.5294" stroke="white"/>
<path d="M17.4118 1.88235C17.4118 1.88235 21.3155 6.83045 21.4852 11.0288C21.655 15.2272 17.4118 22.2745 17.4118 22.2745" stroke="white"/>
</svg>
